<svg width="16" height="18" viewBox="0 0 16 18" fill="none" xmlns="http://www.w3.org/2000/svg">
<path d="M15.0194 13.7612L10.5 7.54688V1.5H11.75V0.25H4.24999V1.5H5.49999V7.54688L0.980612 13.7612C0.708008 14.1359 0.544369 14.5787 0.507803 15.0406C0.471237 15.5025 0.563169 15.9655 0.773426 16.3783C0.983684 16.7912 1.30407 17.1379 1.69913 17.38C2.09419 17.622 2.54853 17.7501 3.01186 17.75H12.9875C13.4508 17.7501 13.9052 17.622 14.3002 17.38C14.6953 17.1379 15.0157 16.7912 15.2259 16.3783C15.4362 15.9655 15.5281 15.5025 15.4915 15.0406C15.455 14.5787 15.2913 14.1359 15.0187 13.7612H15.0194ZM6.74999 7.95312V1.5H9.24999V7.95312L10.9206 10.25H5.07936L6.74999 7.95312ZM12.9881 16.5H3.01249C2.77986 16.4998 2.55182 16.4352 2.35354 16.3136C2.15526 16.1919 1.99446 16.0178 1.88888 15.8105C1.78329 15.6032 1.73703 15.3708 1.75521 15.1389C1.77338 14.907 1.85528 14.6846 1.99186 14.4963L4.17061 11.5H11.8294L14.0087 14.4963C14.1453 14.6846 14.2272 14.907 14.2454 15.1389C14.2636 15.3708 14.2173 15.6032 14.1117 15.8105C14.0061 16.0178 13.8453 16.1919 13.6471 16.3136C13.4488 16.4352 13.2207 16.4998 12.9881 16.5Z" fill="white"/>
</svg>
