<svg width="18" height="14" viewBox="0 0 18 14" fill="none" xmlns="http://www.w3.org/2000/svg">
<path d="M0.666687 13.6667H17.3334V2.83334C17.3334 2.16668 17.0667 1.53334 16.6 1.06668C16.1334 0.60001 15.5 0.333344 14.8334 0.333344H3.16669C2.50002 0.333344 1.86669 0.60001 1.40002 1.06668C0.933354 1.53334 0.666687 2.16668 0.666687 2.83334V13.6667ZM15.6667 6.16668H11.5V4.50001H6.50002V6.16668H2.33335V2.83334C2.33335 2.61668 2.42502 2.41668 2.57502 2.24168C2.75002 2.09168 2.95002 2.00001 3.16669 2.00001H14.8334C15.0584 2.00001 15.25 2.09168 15.425 2.24168C15.5834 2.41668 15.6667 2.61668 15.6667 2.83334V6.16668ZM11.5 7.83334H15.6667V12H2.33335V7.83334H6.50002L8.16669 9.50001H9.83335L11.5 7.83334ZM8.16669 6.16668H9.83335V7.83334H8.16669V6.16668Z" fill="white"/>
</svg>
